<svg t="1715173960667" class="icon" viewBox="0 0 1024 1024" version="1.1" xmlns="http://www.w3.org/2000/svg" p-id="92662" width="200" height="200"><path d="M960 976H64a8 8 0 0 1-8-8v-656a8 8 0 0 1 16 0V960H960a8 8 0 0 1 0 16z" fill="#263238" p-id="92663"></path><path d="M320 968H160v-304a16 16 0 0 1 16-16h128a16 16 0 0 1 16 16v304z" fill="#FFD740" p-id="92664"></path><path d="M320 976H160a8 8 0 0 1-8-8v-304c0-13.232 10.768-24 24-24h128c13.232 0 24 10.768 24 24v304a8 8 0 0 1-8 8z m-152-16h144V664c0-4.4-3.6-8-8-8h-128c-4.4 0-8 3.6-8 8V960z" fill="#263238" p-id="92665"></path><path d="M584 968h-160V528a16 16 0 0 1 16-16h128a16 16 0 0 1 16 16v440z" fill="#40C4FF" p-id="92666"></path><path d="M584 976h-160a8 8 0 0 1-8-8V528c0-13.232 10.768-24 24-24h128c13.232 0 24 10.768 24 24v440a8 8 0 0 1-8 8zM432 960h144V528c0-4.4-3.6-8-8-8h-128c-4.4 0-8 3.6-8 8v432z" fill="#263238" p-id="92667"></path><path d="M848 968H688V384a16 16 0 0 1 16-16h128a16 16 0 0 1 16 16v584z" fill="#FF5252" p-id="92668"></path><path d="M848 976H688a8 8 0 0 1-8-8V384c0-13.232 10.768-24 24-24h128c13.232 0 24 10.768 24 24v584a8 8 0 0 1-8 8z m-152-16h144V384c0-4.4-3.6-8-8-8h-128c-4.4 0-8 3.6-8 8v576zM336.496 96h-64a8 8 0 0 1 0-16h64a8 8 0 0 1 0 16z" fill="#263238" p-id="92669"></path><path d="M304.496 128a8 8 0 0 1-8-8v-64a8 8 0 0 1 16 0v64a8 8 0 0 1-8 8zM224.496 200h-64a8 8 0 0 1 0-16h64a8 8 0 0 1 0 16z" fill="#263238" p-id="92670"></path><path d="M192.496 232a8 8 0 0 1-8-8v-64a8 8 0 0 1 16 0v64a8 8 0 0 1-8 8zM240 552h-80a8 8 0 0 1 0-16h76.384l117.616-133.296A8.016 8.016 0 0 1 360 400h140.256l117.616-141.12A7.904 7.904 0 0 1 624 256h144a8 8 0 0 1 0 16h-140.256l-117.616 141.12a7.904 7.904 0 0 1-6.128 2.88h-140.384l-117.616 133.296A8.016 8.016 0 0 1 240 552z" fill="#263238" p-id="92671"></path><path d="M504 408m-40 0a40 40 0 1 0 80 0 40 40 0 1 0-80 0Z" fill="#FFFFFF" p-id="92672"></path><path d="M504 456c-26.464 0-48-21.536-48-48s21.536-48 48-48 48 21.536 48 48-21.536 48-48 48z m0-80c-17.648 0-32 14.352-32 32s14.352 32 32 32 32-14.352 32-32-14.352-32-32-32z" fill="#263238" p-id="92673"></path><path d="M240 544m-40 0a40 40 0 1 0 80 0 40 40 0 1 0-80 0Z" fill="#FFFFFF" p-id="92674"></path><path d="M240 592c-26.464 0-48-21.536-48-48s21.536-48 48-48 48 21.536 48 48-21.536 48-48 48z m0-80c-17.648 0-32 14.352-32 32s14.352 32 32 32 32-14.352 32-32-14.352-32-32-32z" fill="#263238" p-id="92675"></path><path d="M768 264m-40 0a40 40 0 1 0 80 0 40 40 0 1 0-80 0Z" fill="#FFFFFF" p-id="92676"></path><path d="M768 312c-26.464 0-48-21.536-48-48s21.536-48 48-48 48 21.536 48 48-21.536 48-48 48z m0-80c-17.648 0-32 14.352-32 32s14.352 32 32 32 32-14.352 32-32-14.352-32-32-32z" fill="#263238" p-id="92677"></path></svg>